<?xml version="1.0" encoding="UTF-8" standalone="no" ?>
<!DOCTYPE svg PUBLIC "-//W3C//DTD SVG 1.1//EN" "http://www.w3.org/Graphics/SVG/1.1/DTD/svg11.dtd">
<svg xmlns="http://www.w3.org/2000/svg" xmlns:xlink="http://www.w3.org/1999/xlink" version="1.1" width="500" height="500" viewBox="0 0 500 500" xml:space="preserve">
<desc>Created with Fabric.js 5.3.0</desc>
<defs>
</defs>
<g transform="matrix(1.0466970361 0 0 1.0466970361 250 250)" id="RGX5MYt4Y9tKgu0PvHpfp"  >
<path style="stroke: rgb(220,142,185); stroke-width: 0; stroke-dasharray: none; stroke-linecap: butt; stroke-dashoffset: 0; stroke-linejoin: miter; stroke-miterlimit: 4; fill: rgb(255,255,255); fill-rule: nonzero; opacity: 1;"  transform=" translate(0, 0)" d="M 0 -238.84657 C 131.84331 -238.84657 238.84657 -131.84331000000003 238.84657 0 C 238.84657 131.84331 131.84331000000003 238.84657 0 238.84657 C -131.84331 238.84657 -238.84657 131.84331000000003 -238.84657 0 C -238.84657 -131.84331 -131.84331000000003 -238.84657 0 -238.84657 z" stroke-linecap="round" />
</g>
<g transform="matrix(1 0 0 1 250 250)" id="ht7h_kXpPQsY11cmNJoJl"  >
<g style=""   >
		<g transform="matrix(0.1 0 0 -0.1 -67 -101)" id="1vSMg2SEp6S9zdwWbWJDX"  >
<path style="stroke: none; stroke-width: 1; stroke-dasharray: none; stroke-linecap: butt; stroke-dashoffset: 0; stroke-linejoin: miter; stroke-miterlimit: 4; fill: rgb(0,0,0); fill-rule: nonzero; opacity: 1;"  transform=" translate(-590, -2270)" d="M 240 2505 C 240 2502 310 2394 395 2265 L 549 2030 L 745 2030 C 852 2030 940 2032 940 2035 C 940 2037 870 2145 784 2275 L 628 2510 L 434 2510 C 327 2510 240 2508 240 2505 z" stroke-linecap="round" />
</g>
		<g transform="matrix(0.1 0 0 -0.1 67 -101)" id="k3a9FU8iNIKu41fKkhjxh"  >
<path style="stroke: none; stroke-width: 1; stroke-dasharray: none; stroke-linecap: butt; stroke-dashoffset: 0; stroke-linejoin: miter; stroke-miterlimit: 4; fill: rgb(0,0,0); fill-rule: nonzero; opacity: 1;"  transform=" translate(-1930, -2270)" d="M 1735 2274 C 1650 2145 1580 2037 1580 2034 C 1580 2032 1668 2030 1775 2030 L 1970 2030 L 2125 2266 C 2210 2395 2280 2503 2280 2506 C 2280 2508 2192 2510 2085 2510 L 1891 2510 L 1735 2274 z" stroke-linecap="round" />
</g>
		<g transform="matrix(0.1 0 0 -0.1 -108.95 -30.55)" id="0AkCLJ64d1KkKK3LiZOG_"  >
<path style="stroke: none; stroke-width: 1; stroke-dasharray: none; stroke-linecap: butt; stroke-dashoffset: 0; stroke-linejoin: miter; stroke-miterlimit: 4; fill: rgb(0,0,0); fill-rule: nonzero; opacity: 1;"  transform=" translate(-170.5, -1565.5)" d="M 10 1565 L 10 1410 L 170 1410 L 331 1410 L 328 1563 L 325 1715 L 168 1718 L 10 1721 L 10 1565 z" stroke-linecap="round" />
</g>
		<g transform="matrix(0.1 0 0 -0.1 109 -30.5)" id="Qh2_jD6pq1knBUePofdfz"  >
<path style="stroke: none; stroke-width: 1; stroke-dasharray: none; stroke-linecap: butt; stroke-dashoffset: 0; stroke-linejoin: miter; stroke-miterlimit: 4; fill: rgb(0,0,0); fill-rule: nonzero; opacity: 1;"  transform=" translate(-2350, -1565)" d="M 2197 1713 C 2193 1710 2190 1640 2190 1558 L 2190 1410 L 2350 1410 L 2510 1410 L 2510 1565 L 2510 1720 L 2357 1720 C 2272 1720 2200 1717 2197 1713 z" stroke-linecap="round" />
</g>
		<g transform="matrix(0.1 0 0 -0.1 -109.25 29.5)" id="OgIZZKdEDy-UcWC21t2m3"  >
<path style="stroke: none; stroke-width: 1; stroke-dasharray: none; stroke-linecap: butt; stroke-dashoffset: 0; stroke-linejoin: miter; stroke-miterlimit: 4; fill: rgb(0,0,0); fill-rule: nonzero; opacity: 1;"  transform=" translate(-167.5, -965)" d="M 10 965 L 10 809 L 168 812 L 325 815 L 325 965 L 325 1115 L 168 1118 L 10 1121 L 10 965 z" stroke-linecap="round" />
</g>
		<g transform="matrix(0.1 0 0 -0.1 109.0803847577 29.55)" id="zJVT-PGi-hw1_9CQq0g_B"  >
<path style="stroke: none; stroke-width: 1; stroke-dasharray: none; stroke-linecap: butt; stroke-dashoffset: 0; stroke-linejoin: miter; stroke-miterlimit: 4; fill: rgb(0,0,0); fill-rule: nonzero; opacity: 1;"  transform=" translate(-2350.8038475773, -964.5)" d="M 2194 1107 C 2192 1100 2191 1031 2192 955 L 2195 815 L 2353 812 L 2510 809 L 2510 965 L 2510 1120 L 2355 1120 C 2237 1120 2198 1117 2194 1107 z" stroke-linecap="round" />
</g>
		<g transform="matrix(0.1 0 0 -0.1 -66.95 101)" id="ClVNzG5XEbpirIyWUdfz2"  >
<path style="stroke: none; stroke-width: 1; stroke-dasharray: none; stroke-linecap: butt; stroke-dashoffset: 0; stroke-linejoin: miter; stroke-miterlimit: 4; fill: rgb(0,0,0); fill-rule: nonzero; opacity: 1;"  transform=" translate(-590.5, -250)" d="M 548 473 C 540 463 467 355 387 232 L 241 10 L 439 10 L 637 10 L 789 241 C 872 368 940 476 940 481 C 940 486 860 490 752 490 C 584 490 561 488 548 473 z" stroke-linecap="round" />
</g>
		<g transform="matrix(0.1 0 0 -0.1 67 101)" id="5DIdDgMQoCM-RZh-bvehE"  >
<path style="stroke: none; stroke-width: 1; stroke-dasharray: none; stroke-linecap: butt; stroke-dashoffset: 0; stroke-linejoin: miter; stroke-miterlimit: 4; fill: rgb(0,0,0); fill-rule: nonzero; opacity: 1;"  transform=" translate(-1930, -250)" d="M 1580 480 C 1580 475 1648 367 1731 240 L 1882 10 L 2081 10 L 2280 10 L 2139 222 C 2062 339 1990 447 1979 463 L 1959 490 L 1770 490 C 1650 490 1580 486 1580 480 z" stroke-linecap="round" />
</g>
</g>
</g>
</svg>